<svg width="50" height="50" fill="none" xmlns="http://www.w3.org/2000/svg"><path d="M25.035 20a2.495 2.495 0 00-2.496 2.499v10a2.502 2.502 0 002.496 2.5 2.495 2.495 0 002.497-2.5v-10a2.502 2.502 0 00-2.497-2.5zm-9.986 7.499a2.495 2.495 0 00-2.496 2.5v2.5a2.502 2.502 0 002.496 2.5 2.495 2.495 0 002.497-2.5v-2.5a2.502 2.502 0 00-2.497-2.5zM25.035 0A24.935 24.935 0 007.382 7.322 25.016 25.016 0 00.07 24.999a24.745 24.745 0 005.642 15.824l-4.993 5a2.5 2.5 0 00-.524 2.725 2.499 2.499 0 002.372 1.45h22.468a24.948 24.948 0 0017.653-7.322A25.016 25.016 0 0050 24.999c0-6.63-2.63-12.989-7.312-17.677A24.948 24.948 0 0025.035 0zm0 44.998H8.583l2.322-2.325a2.5 2.5 0 00.749-1.775 2.5 2.5 0 00-.749-1.75 20.02 20.02 0 01-2.498-25.25A19.974 19.974 0 0119.21 5.865a19.946 19.946 0 0113.44.652 19.982 19.982 0 019.977 9.042 20.023 20.023 0 01-4.926 24.89 19.955 19.955 0 01-12.666 4.549zm9.986-29.999a2.495 2.495 0 00-2.496 2.5v15a2.502 2.502 0 002.496 2.5 2.495 2.495 0 002.497-2.5v-15A2.502 2.502 0 0035.02 15z" fill="#fff"/></svg>