<svg width="50" height="62" fill="none" xmlns="http://www.w3.org/2000/svg"><path d="M15.19 20.431l-.006.003-.008.006.014-.009zm27.65-.516a3.433 3.433 0 00-.64-.484 2.79 2.79 0 00-3.888 1.136 15.988 15.988 0 01-3.883 4.912A23.974 23.974 0 0031.53 9.194 24.142 24.142 0 0022.579.361a2.79 2.79 0 00-3.712.912 2.751 2.751 0 00-.433 1.314 19.304 19.304 0 01-2.024 7.527 19.403 19.403 0 01-4.84 6.127l-.639.516a23.596 23.596 0 00-5.522 5.147 24.758 24.758 0 00-4.877 10.33A24.686 24.686 0 00.82 43.643a24.774 24.774 0 005.39 10.074 24.951 24.951 0 009.355 6.61 2.791 2.791 0 002.597-.266 2.767 2.767 0 001.228-2.292 2.884 2.884 0 00-.14-.862 19.174 19.174 0 01-.527-7.13 24.958 24.958 0 0011.98 11.094 2.783 2.783 0 001.987.105 25.003 25.003 0 0010.61-6.713 24.808 24.808 0 005.978-11.002 24.72 24.72 0 00-.168-12.506 24.817 24.817 0 00-6.27-10.84zM31.993 55.362a19.323 19.323 0 01-6.27-5.028 19.2 19.2 0 01-3.667-7.133 24.497 24.497 0 01-.5-2.663 2.757 2.757 0 00-.733-1.521 2.782 2.782 0 00-3.407-.494 2.772 2.772 0 00-1.018 1.012 24.646 24.646 0 00-3.347 13.035 19.327 19.327 0 01-4.985-5.743 19.196 19.196 0 01-1.77-14.773 19.26 19.26 0 013.488-6.746 18.17 18.17 0 014.339-4.028c.073-.047.142-.098.208-.152 0 0 .823-.677.85-.691a24.758 24.758 0 008.056-12.8 18.58 18.58 0 015.74 10.523 18.52 18.52 0 01-1.893 11.822 2.75 2.75 0 00.33 3.05 2.792 2.792 0 002.96.867A21.823 21.823 0 0041.1 26.473a19.238 19.238 0 012.454 16.63 19.315 19.315 0 01-4.372 7.445 19.45 19.45 0 01-7.19 4.814z" fill="#fff"/></svg>