<svg width="50" height="50" fill="none" xmlns="http://www.w3.org/2000/svg"><path d="M47.727 9.09H2.273A2.273 2.273 0 000 11.365v9.09a6.818 6.818 0 004.545 6.41v20.863A2.273 2.273 0 006.818 50h36.364a2.272 2.272 0 002.273-2.273V26.864A6.818 6.818 0 0050 20.454v-9.09a2.272 2.272 0 00-2.273-2.273zm-15.909 4.546h4.546v6.819a2.273 2.273 0 11-4.546 0v-6.819zm-9.09 0h4.545v6.819a2.273 2.273 0 11-4.546 0v-6.819zm-9.092 0h4.546v6.819a2.273 2.273 0 11-4.546 0v-6.819zm-6.818 9.091a2.273 2.273 0 01-2.273-2.273v-6.818h4.546v6.819a2.273 2.273 0 01-2.273 2.272zm22.727 22.728h-9.09v-4.546a4.545 4.545 0 119.09 0v4.546zm11.364 0h-6.818v-4.546a9.09 9.09 0 10-18.182 0v4.546H9.091V26.864a7.202 7.202 0 002.273-1.364 6.818 6.818 0 009.09 0 6.818 6.818 0 009.091 0 6.818 6.818 0 009.091 0 7.202 7.202 0 002.273 1.364v18.59zm4.546-25a2.273 2.273 0 11-4.546 0v-6.819h4.546v6.819zM7.5 4.544h35.682a2.273 2.273 0 100-4.545H7.5a2.273 2.273 0 000 4.545z" fill="#fff"/></svg>