<svg width="16" height="17" fill="none" xmlns="http://www.w3.org/2000/svg"><path d="M2.286 2.695c1.547-1.547 3.41-2.32 5.59-2.32 2.18 0 4.03.773 5.554 2.32 1.547 1.524 2.32 3.375 2.32 5.555 0 2.18-.773 4.043-2.32 5.59-1.523 1.523-3.375 2.285-5.555 2.285a7.793 7.793 0 01-2.25-.316c.422-.75.692-1.313.81-1.688l.562-2.18c.351.657.984.985 1.898.985 1.266 0 2.285-.504 3.059-1.512.796-1.008 1.195-2.297 1.195-3.867 0-1.219-.469-2.274-1.406-3.164-.938-.914-2.133-1.371-3.586-1.371-1.735 0-3.106.515-4.114 1.547C3.036 5.566 2.532 6.69 2.532 7.934c0 1.57.539 2.578 1.617 3.023.21.094.351.023.422-.21 0-.048.012-.153.035-.317.047-.164.082-.27.105-.317.047-.14.012-.281-.105-.422-.352-.421-.527-.937-.527-1.546 0-1.032.351-1.91 1.054-2.637.727-.75 1.664-1.125 2.813-1.125 1.031 0 1.84.281 2.426.844.585.539.879 1.253.879 2.144 0 1.172-.235 2.168-.704 2.988-.468.797-1.066 1.196-1.793 1.196-.421 0-.761-.14-1.02-.422-.257-.305-.339-.668-.245-1.09.047-.234.129-.55.246-.95.14-.398.246-.75.316-1.054a2.7 2.7 0 00.14-.773c0-.329-.093-.61-.28-.844-.188-.234-.446-.352-.774-.352-.422 0-.785.2-1.09.598-.28.375-.422.855-.422 1.441 0 .211.024.422.07.633.048.211.095.375.141.492l.036.141a445.794 445.794 0 00-1.02 4.29 5.636 5.636 0 00-.14 1.792 7.986 7.986 0 01-3.41-2.883C.433 11.285 0 9.844 0 8.25c0-2.18.762-4.031 2.286-5.555z"/></svg>