<svg width="89" height="66" fill="none" xmlns="http://www.w3.org/2000/svg"><path d="M20.228 26.82h0c3.676 0 7.277 1.034 10.386 2.982a19.382 19.382 0 017.182 8.026 19.23 19.23 0 011.766 10.594 19.275 19.275 0 01-4.194 9.897 19.466 19.466 0 01-8.863 6.148 19.587 19.587 0 01-10.8.504 19.498 19.498 0 01-9.402-5.3 19.301 19.301 0 01-5.108-9.463l-.106-.495-.083.019-.031-.206s0 0 0 0a32.99 32.99 0 01-.276-2.34h0v-.012C.514 45.297.425 42.69.575 39.547c.18-3.133.646-6.79 1.686-10.637a48.145 48.145 0 012.05-5.817l.29-.612c.832-1.754 1.64-3.46 2.774-5.029l.014-.018.01-.02c1.095-1.838 2.51-3.464 3.97-5.038l.014-.014.012-.015c.637-.803 1.394-1.487 2.193-2.143.283-.233.577-.466.873-.7.52-.413 1.044-.83 1.526-1.254.744-.616 1.543-1.12 2.357-1.596.275-.16.556-.32.837-.48.54-.306 1.081-.613 1.588-.932h0l.01-.006c.717-.476 1.469-.818 2.23-1.122.268-.108.546-.213.824-.32.484-.183.971-.368 1.422-.568.365-.14.713-.281 1.047-.417 1.018-.411 1.908-.771 2.765-.928l.016-.003.015-.004c.677-.17 1.296-.321 1.862-.46l1.193-.293.002-.001 2.163-.519 1.926 7.646-1.702.703h-.002l-2.372.972c-.523.17-1.017.428-1.494.704-.218.127-.438.26-.656.393l-.072.043c-.243.148-.487.295-.738.438l-.014.008-.014.01c-.322.213-.662.399-1.029.6a38.74 38.74 0 00-.541.3c-.56.319-1.149.69-1.666 1.195-.347.319-.724.61-1.124.92l-.403.314c-.542.426-1.102.896-1.583 1.471l-.006.007-.005.007c-.298.384-.629.732-.98 1.1-.13.137-.263.277-.398.422-.48.517-.966 1.088-1.326 1.78l-.054.083c-.752 1.135-1.537 2.32-2.051 3.685-.524.98-.849 2.057-1.15 3.062l-.224.75.775-.112.206-.03c.882-.128 1.729-.251 2.606-.251zm45.442-.356l-.224.75.775-.112.206-.03c.882-.128 1.728-.251 2.606-.251a19.56 19.56 0 0110.386 2.981 19.381 19.381 0 017.182 8.026 19.229 19.229 0 011.765 10.594 19.275 19.275 0 01-4.194 9.897 19.466 19.466 0 01-8.862 6.148 19.587 19.587 0 01-10.8.504 19.498 19.498 0 01-9.403-5.3A19.3 19.3 0 0150 50.209l-.107-.495-.083.019-.03-.206s0 0 0 0a33.23 33.23 0 01-.276-2.34h0l-.001-.012c-.184-1.877-.272-4.484-.123-7.627.18-3.133.647-6.79 1.687-10.637a48.19 48.19 0 012.05-5.817l.29-.612c.832-1.754 1.64-3.46 2.774-5.029l.013-.018.012-.02c1.094-1.838 2.51-3.464 3.97-5.038l.012-.014.012-.015c.638-.8 1.394-1.483 2.194-2.14.282-.23.574-.462.868-.696.52-.413 1.047-.83 1.53-1.257.744-.615 1.543-1.12 2.358-1.596.275-.16.555-.32.837-.479.54-.306 1.08-.613 1.588-.933h0l.01-.006c.717-.477 1.47-.82 2.23-1.124.262-.105.531-.207.801-.31.492-.187.987-.375 1.445-.58.365-.14.713-.281 1.047-.417 1.018-.411 1.908-.771 2.765-.928l.015-.003.016-.004c.677-.17 1.295-.321 1.862-.46.425-.104.822-.201 1.192-.293l.002-.001 2.164-.519 1.926 7.646-1.702.703h-.002l-2.373.972c-.523.17-1.016.428-1.494.704-.218.127-.438.26-.656.393l-.07.043c-.245.148-.488.295-.739.438l-.014.008-.014.01c-.322.213-.662.399-1.03.6-.173.095-.353.194-.54.3-.56.319-1.149.69-1.666 1.195-.347.319-.724.61-1.124.92-.132.102-.267.206-.403.314-.542.426-1.103.896-1.583 1.471l-.006.007-.005.007c-.298.384-.63.732-.98 1.1-.13.137-.263.277-.398.422-.48.517-.967 1.088-1.326 1.78l-.055.083c-.752 1.135-1.536 2.32-2.05 3.685-.525.98-.85 2.057-1.15 3.062z" fill="#0059AC" stroke="#000"/></svg>