<svg width="16" height="16" fill="none" xmlns="http://www.w3.org/2000/svg"><g clip-path="url(#clip0_0_282)"><path d="M15.304 5.582l-4.406-.417a.762.762 0 01-.631-.467L8.688.873C8.436.24 7.54.24 7.287.873L5.72 4.698a.746.746 0 01-.631.467l-4.406.417c-.657.063-.922.884-.43 1.326l3.321 2.916c.215.19.303.467.24.745l-.998 4.09c-.151.644.543 1.175 1.124.834l3.674-2.16a.764.764 0 01.77 0l3.674 2.16a.76.76 0 001.124-.834l-.985-4.09a.755.755 0 01.24-.745l3.32-2.916c.48-.442.202-1.263-.454-1.326z" fill="#8991AF"/></g><defs><clipPath id="clip0_0_282"><path fill="#fff" d="M0 0h16v16H0z"/></clipPath></defs></svg>