<svg width="16" height="16" viewBox="0 0 16 16" fill="none" xmlns="http://www.w3.org/2000/svg">
<g clip-path="url(#clip0_0_282)">
<path d="M15.3039 5.58196L10.8978 5.16533C10.62 5.14008 10.38 4.96333 10.2665 4.6982L8.68836 0.872739C8.43585 0.241476 7.53933 0.241476 7.28683 0.872739L5.7213 4.6982C5.62029 4.96333 5.36779 5.14008 5.09003 5.16533L0.683816 5.58196C0.0273019 5.64509 -0.237829 6.46573 0.254557 6.90762L3.575 9.82405C3.78963 10.0134 3.87801 10.2912 3.81488 10.5689L2.81749 14.6594C2.66598 15.3034 3.36037 15.8336 3.94113 15.4928L7.61509 13.3338C7.85497 13.1949 8.14535 13.1949 8.38523 13.3338L12.0593 15.4928C12.6401 15.8336 13.3345 15.316 13.1828 14.6594L12.1981 10.5689C12.1349 10.2912 12.2233 10.0134 12.4379 9.82405L15.7584 6.90762C16.2381 6.46573 15.9604 5.64509 15.3039 5.58196Z" fill="#8991AF"/>
</g>
<defs>
<clipPath id="clip0_0_282">
<rect width="15.9999" height="16" fill="white"/>
</clipPath>
</defs>
</svg>
