<svg width="17" height="14" fill="none" xmlns="http://www.w3.org/2000/svg"><path d="M16.594 2.117c-.422.656-.984 1.242-1.687 1.758v.422c0 2.46-.89 4.7-2.672 6.715C10.477 13.004 8.133 14 5.204 14c-1.875 0-3.61-.516-5.204-1.547.375.047.645.07.81.07 1.57 0 2.976-.492 4.218-1.476a3.49 3.49 0 01-1.969-.668A3.311 3.311 0 011.864 8.69c.281.047.492.07.633.07.234 0 .539-.046.914-.14a3.557 3.557 0 01-1.97-1.16 3.353 3.353 0 01-.773-2.18v-.035c.516.281 1.032.422 1.547.422C1.208 5.012.704 4.062.704 2.82c0-.586.152-1.148.457-1.687 1.804 2.226 4.136 3.41 6.996 3.55-.047-.163-.07-.421-.07-.773 0-.96.328-1.77.984-2.426C9.727.828 10.536.5 11.497.5c.96 0 1.78.363 2.46 1.09.704-.117 1.43-.399 2.18-.844-.234.82-.738 1.453-1.511 1.899a5.805 5.805 0 001.968-.528z"/></svg>