<svg width="18" height="14" fill="none" xmlns="http://www.w3.org/2000/svg"><path d="M17.895 3.488a67.82 67.82 0 010 7.524c0 .797-.258 1.476-.773 2.039a2.376 2.376 0 01-1.829.808C13.49 13.953 11.392 14 9 14c-2.39 0-4.488-.047-6.292-.14-.727 0-1.348-.27-1.864-.81-.492-.562-.738-1.241-.738-2.038A67.807 67.807 0 010 7.25c0-.82.047-2.074.141-3.762 0-.797.246-1.465.738-2.004C1.372.922 1.981.641 2.708.641 4.418.547 6.41.5 8.684.5h.633c2.273 0 4.265.047 5.976.14.727 0 1.336.282 1.829.844.515.54.773 1.207.773 2.004zM7.278 10.695l5.098-3.445-5.098-3.48v6.925z"/></svg>