<svg width="50" height="50" viewBox="0 0 50 50" fill="none" xmlns="http://www.w3.org/2000/svg">
<path d="M47.7273 9.09091H2.27273C1.66996 9.09091 1.09189 9.33036 0.665666 9.75658C0.239447 10.1828 0 10.7609 0 11.3636V20.4545C0.00395343 21.8612 0.442906 23.2323 1.25668 24.3797C2.07045 25.5271 3.21921 26.3947 4.54545 26.8636V47.7273C4.54545 48.33 4.7849 48.9081 5.21112 49.3343C5.63734 49.7606 6.21542 50 6.81818 50H43.1818C43.7846 50 44.3627 49.7606 44.7889 49.3343C45.2151 48.9081 45.4545 48.33 45.4545 47.7273V26.8636C46.7808 26.3947 47.9296 25.5271 48.7433 24.3797C49.5571 23.2323 49.996 21.8612 50 20.4545V11.3636C50 10.7609 49.7606 10.1828 49.3343 9.75658C48.9081 9.33036 48.33 9.09091 47.7273 9.09091ZM31.8182 13.6364H36.3636V20.4545C36.3636 21.0573 36.1242 21.6354 35.698 22.0616C35.2718 22.4878 34.6937 22.7273 34.0909 22.7273C33.4881 22.7273 32.9101 22.4878 32.4838 22.0616C32.0576 21.6354 31.8182 21.0573 31.8182 20.4545V13.6364ZM22.7273 13.6364H27.2727V20.4545C27.2727 21.0573 27.0333 21.6354 26.6071 22.0616C26.1808 22.4878 25.6028 22.7273 25 22.7273C24.3972 22.7273 23.8192 22.4878 23.3929 22.0616C22.9667 21.6354 22.7273 21.0573 22.7273 20.4545V13.6364ZM13.6364 13.6364H18.1818V20.4545C18.1818 21.0573 17.9424 21.6354 17.5162 22.0616C17.0899 22.4878 16.5119 22.7273 15.9091 22.7273C15.3063 22.7273 14.7282 22.4878 14.302 22.0616C13.8758 21.6354 13.6364 21.0573 13.6364 20.4545V13.6364ZM6.81818 22.7273C6.21542 22.7273 5.63734 22.4878 5.21112 22.0616C4.7849 21.6354 4.54545 21.0573 4.54545 20.4545V13.6364H9.09091V20.4545C9.09091 21.0573 8.85146 21.6354 8.42524 22.0616C7.99902 22.4878 7.42095 22.7273 6.81818 22.7273ZM29.5455 45.4545H20.4545V40.9091C20.4545 39.7036 20.9334 38.5474 21.7859 37.695C22.6383 36.8425 23.7945 36.3636 25 36.3636C26.2055 36.3636 27.3617 36.8425 28.2141 37.695C29.0666 38.5474 29.5455 39.7036 29.5455 40.9091V45.4545ZM40.9091 45.4545H34.0909V40.9091C34.0909 38.498 33.1331 36.1857 31.4282 34.4809C29.7234 32.776 27.4111 31.8182 25 31.8182C22.5889 31.8182 20.2766 32.776 18.5718 34.4809C16.8669 36.1857 15.9091 38.498 15.9091 40.9091V45.4545H9.09091V26.8636C9.9263 26.5536 10.6969 26.0912 11.3636 25.5C12.6137 26.6181 14.232 27.2362 15.9091 27.2362C17.5862 27.2362 19.2045 26.6181 20.4545 25.5C21.7046 26.6181 23.3229 27.2362 25 27.2362C26.6771 27.2362 28.2954 26.6181 29.5455 25.5C30.7955 26.6181 32.4138 27.2362 34.0909 27.2362C35.768 27.2362 37.3863 26.6181 38.6364 25.5C39.3031 26.0912 40.0737 26.5536 40.9091 26.8636V45.4545ZM45.4545 20.4545C45.4545 21.0573 45.2151 21.6354 44.7889 22.0616C44.3627 22.4878 43.7846 22.7273 43.1818 22.7273C42.5791 22.7273 42.001 22.4878 41.5748 22.0616C41.1485 21.6354 40.9091 21.0573 40.9091 20.4545V13.6364H45.4545V20.4545ZM7.5 4.54545H43.1818C43.7846 4.54545 44.3627 4.30601 44.7889 3.87979C45.2151 3.45357 45.4545 2.87549 45.4545 2.27273C45.4545 1.66996 45.2151 1.09189 44.7889 0.665666C44.3627 0.239447 43.7846 0 43.1818 0H7.5C6.89724 0 6.31916 0.239447 5.89294 0.665666C5.46672 1.09189 5.22727 1.66996 5.22727 2.27273C5.22727 2.87549 5.46672 3.45357 5.89294 3.87979C6.31916 4.30601 6.89724 4.54545 7.5 4.54545Z" fill="white"/>
</svg>
